<?xml version="1.0" encoding="UTF-8"?><svg xmlns="http://www.w3.org/2000/svg" viewBox="0 0 114 47.15"><g id="a"/><g id="b"><g id="c"><path d="M67.12,.15h-2.57s1.05-.14,2.57,0Z"/><path d="M106,41.15S80,11.15,76,5.15c-2.5-3.75-6.35-4.76-8.88-5h-2.57L8.91,.09S0-1.85,0,12.15v27.47s0,7.53,8,7.53,26.69-.08,27.24-.08h.01c1.39-.33,6.4-1.57,7.75-2.92,1-1,19-17,19-17l15,18s2,2,5,2h32v-2.37c-6-.36-8-3.63-8-3.63Zm-64.8,1.81c-.14,.13-.29,.24-.46,.32-1.67,.82-10.92,4.87-12.74-5.13V8.01s1-5.86,6-5.86,8,1,12,6,14,17,14,17l-18.8,17.81Z"/></g></g></svg>