<?xml version="1.0" encoding="UTF-8"?><svg xmlns="http://www.w3.org/2000/svg" viewBox="0 0 38 45.56"><defs><style>.d{fill:#39b54a;}</style></defs><g id="a"/><g id="b"><g id="c"><path class="d" d="M19,0C8.51,0,0,8.51,0,19c0,8.99,6.26,16.53,14.65,18.49l-2.09,2.15,6.08,5.92,9.84-10.1c5.69-3.28,9.52-9.42,9.52-16.46C38,8.51,29.49,0,19,0Zm-.5,29c-5.8,0-10.5-4.7-10.5-10.5s4.7-10.5,10.5-10.5,10.5,4.7,10.5,10.5c0,2.72-1.04,5.19-2.73,7.06-.12,.12-.23,.24-.35,.36-1.9,1.9-4.52,3.08-7.42,3.08Z"/></g></g></svg>