<?xml version="1.0" encoding="UTF-8"?><svg xmlns="http://www.w3.org/2000/svg" viewBox="0 0 60 73.14"><defs><style>.d{fill:#39b54a;}</style></defs><g id="a"/><g id="b"><g id="c"><path class="d" d="M30,0C13.43,0,0,13.44,0,30c0,8.39,3.44,15.97,9,21.41h-.02l21.2,21.73,20.84-21.73c2.33-2.29,4.28-4.95,5.77-7.89,2.05-4.06,3.21-8.65,3.21-13.52C60,13.44,46.57,0,30,0Zm19.83,39.6c-1.1,2.17-2.53,4.12-4.25,5.81l-15.34,15.99-15.6-15.99h.01c-4.09-4-6.62-9.58-6.62-15.76,0-12.19,9.89-22.08,22.08-22.08s22.08,9.89,22.08,22.08c0,3.59-.85,6.96-2.36,9.95Z"/></g></g></svg>